<svg width="798" height="146" viewBox="0 0 798 146" fill="none" xmlns="http://www.w3.org/2000/svg">
<g clip-path="url(#clip0)">
<path d="M307.707 127.711L297.979 121.404C297.201 120.924 296.285 120.715 295.376 120.809C294.466 120.903 293.613 121.295 292.95 121.924C289.196 125.398 284.253 127.3 279.138 127.238C266.352 127.379 259.242 117.967 258.012 107.671C257.841 106.101 257.783 104.52 257.838 102.941L258.138 68.7429C258.143 67.676 257.729 66.6497 256.987 65.8836C256.244 65.1175 255.231 64.6724 254.165 64.6436H241C239.941 64.6487 238.901 64.9254 237.979 65.447C237.057 65.9687 236.284 66.7181 235.734 67.6235L213.961 103.225L192.346 67.6077C191.784 66.7079 191.004 65.9645 190.078 65.4463C189.152 64.9282 188.11 64.6521 187.049 64.6436H173.994C173.452 64.6415 172.915 64.747 172.414 64.9541C171.912 65.1611 171.457 65.4656 171.074 65.8498C170.692 66.234 170.389 66.6903 170.184 67.1924C169.979 67.6944 169.875 68.2322 169.88 68.7745V140.671C169.875 141.213 169.979 141.751 170.184 142.253C170.389 142.755 170.692 143.211 171.074 143.595C171.457 143.98 171.912 144.284 172.414 144.491C172.915 144.698 173.452 144.804 173.994 144.802H185.456C185.999 144.804 186.536 144.698 187.037 144.491C187.538 144.284 187.994 143.98 188.376 143.595C188.759 143.211 189.062 142.755 189.267 142.253C189.472 141.751 189.576 141.213 189.571 140.671V97.1546L209.279 129.571C209.625 130.173 210.126 130.671 210.731 131.013C211.336 131.354 212.022 131.526 212.716 131.51H215.349C216.058 131.524 216.758 131.353 217.381 131.013C218.003 130.672 218.525 130.175 218.896 129.571L238.588 97.1546C237.929 102.439 238.078 107.792 239.03 113.032V113.032C242.624 132.567 258.422 146.236 279.359 146C284.766 146.057 290.129 145.025 295.129 142.966C300.129 140.908 304.664 137.864 308.463 134.017C308.891 133.582 309.215 133.056 309.412 132.479C309.608 131.902 309.673 131.288 309.6 130.682C309.527 130.076 309.32 129.495 308.992 128.981C308.664 128.466 308.225 128.032 307.707 127.711V127.711Z" fill="#1A94C9"/>
<path d="M310.056 74.9866C306.226 71.1658 301.669 68.153 296.653 66.1271C291.637 64.1012 286.265 63.1035 280.857 63.1931C275.042 63.1655 269.283 64.3355 263.94 66.6302C263.52 66.8172 263.163 67.1226 262.914 67.5091C262.665 67.8955 262.534 68.3462 262.537 68.8061V90.1858C262.54 90.356 262.597 90.521 262.7 90.6567C262.802 90.7925 262.946 90.8921 263.109 90.9412C263.272 90.9903 263.446 90.9864 263.607 90.9299C263.768 90.8735 263.906 90.7675 264.003 90.6272C265.869 87.9037 268.392 85.6944 271.337 84.2036C274.283 82.7127 277.557 81.9883 280.857 82.0974C285.971 81.9172 290.949 83.7711 294.699 87.2531C295.376 87.8691 296.234 88.2471 297.145 88.3296C298.056 88.4122 298.969 88.1947 299.745 87.7104L309.362 81.2933C309.873 80.9644 310.305 80.5255 310.625 80.0085C310.945 79.4916 311.145 78.9097 311.212 78.3053C311.278 77.701 311.209 77.0894 311.009 76.5152C310.809 75.9411 310.483 75.4188 310.056 74.9866Z" fill="#1A94C9"/>
<path d="M0 10.8317H57.357V58.3369C57.357 60.9462 56.3205 63.4487 54.4755 65.2937C52.6305 67.1388 50.1282 68.1754 47.519 68.1754H0V10.8317Z" fill="#1A94C9"/>
<path d="M134.311 68.2069H86.7923C84.1831 68.2069 81.6808 67.1704 79.8358 65.3253C77.9908 63.4802 76.9543 60.9778 76.9543 58.3685V10.8475L134.311 10.8475V68.2069Z" fill="#1A94C9"/>
<path d="M0 88.073H47.519C50.1282 88.073 52.6305 89.1095 54.4755 90.9546C56.3205 92.7997 57.357 95.3021 57.357 97.9114V145.432H0V88.073Z" fill="#1A94C9"/>
<path d="M134.311 145.432H76.9543V97.9115C76.9543 95.3021 77.9908 92.7997 79.8358 90.9546C81.6808 89.1096 84.1831 88.073 86.7923 88.073H134.311V145.432Z" fill="url(#paint0_linear)"/>
<path d="M201.301 32.2115C201.301 43.2482 194.222 51.7464 180.931 51.7464H171.377C171.173 51.7595 170.969 51.7303 170.777 51.6607C170.585 51.5911 170.41 51.4825 170.262 51.3419C170.114 51.2013 169.996 51.0316 169.917 50.8434C169.838 50.6553 169.798 50.4528 169.801 50.2486V14.1901C169.787 13.9794 169.818 13.7682 169.892 13.5706C169.966 13.373 170.082 13.1935 170.231 13.0443C170.381 12.895 170.56 12.7793 170.758 12.705C170.955 12.6307 171.167 12.5995 171.377 12.6134H180.931C194.222 12.6134 201.301 21.159 201.301 32.2115ZM195.673 32.2115C195.673 23.4452 190.202 17.7534 180.931 17.7534H175.461V46.6696H180.931C190.202 46.6696 195.673 40.9935 195.673 32.2115V32.2115Z" fill="#9A999F"/>
<path d="M233.953 51.7465H230.894C230.438 51.76 229.988 51.6404 229.599 51.4025C229.21 51.1645 228.898 50.8183 228.703 50.4063L221.293 36.6261C220.788 36.6261 220.283 36.6261 219.716 36.6261H213.236V50.2013C213.24 50.5917 213.09 50.968 212.819 51.2485C212.547 51.5289 212.176 51.6909 211.786 51.6992H209.168C208.764 51.6997 208.374 51.5444 208.081 51.2656C207.787 50.9867 207.612 50.6057 207.592 50.2013V14.1901C207.592 13.7719 207.758 13.3709 208.054 13.0752C208.349 12.7795 208.75 12.6134 209.168 12.6134H219.716C228.64 12.6134 233.732 17.8637 233.732 24.6119C233.786 26.8935 233.142 29.137 231.885 31.042C230.628 32.947 228.819 34.4223 226.7 35.2702L234.962 49.8544C235.079 50.0384 235.146 50.2503 235.154 50.4684C235.163 50.6866 235.113 50.9031 235.011 51.0957C234.908 51.2883 234.756 51.4501 234.57 51.5645C234.384 51.6788 234.171 51.7417 233.953 51.7465V51.7465ZM219.779 31.5335C225.139 31.5335 228.103 28.8058 228.103 24.6119C228.103 20.4179 225.139 17.6903 219.779 17.6903H213.299V31.5335H219.779Z" fill="#9A999F"/>
<path d="M278.271 32.2114C278.271 43.6581 270.01 52.4717 258.453 52.4717C246.897 52.4717 238.588 43.6581 238.588 32.2114C238.588 20.7648 246.85 11.9985 258.453 11.9985C270.057 11.9985 278.271 20.7648 278.271 32.2114ZM272.643 32.2114C272.643 24.6276 267.566 17.2015 258.453 17.2015C249.341 17.2015 244.264 24.6276 244.264 32.2114C244.264 39.7952 249.341 47.2371 258.453 47.2371C267.566 47.2371 272.643 39.811 272.643 32.2114Z" fill="#9A999F"/>
<path d="M305.184 30.6505H319.642C320.032 30.6463 320.408 30.7963 320.689 31.0679C320.969 31.3395 321.131 31.7108 321.139 32.1011V50.5324C321.135 50.696 321.099 50.8572 321.033 51.0067C320.966 51.1563 320.871 51.2913 320.752 51.404C320.634 51.5168 320.494 51.6051 320.341 51.6638C320.189 51.7226 320.026 51.7506 319.862 51.7464H318.696C318.379 51.7508 318.073 51.6312 317.843 51.4133C317.614 51.1953 317.478 50.8962 317.466 50.5797L317.072 45.3294C314.392 49.7441 309.819 52.4244 303.166 52.4244C291.609 52.4244 283.301 43.6581 283.301 32.2115C283.301 20.7648 291.673 11.9512 303.166 11.9512C305.835 11.9043 308.484 12.4047 310.952 13.4216C313.419 14.4386 315.652 15.9503 317.513 17.8637C317.667 18.0217 317.784 18.212 317.855 18.4208C317.926 18.6296 317.949 18.8516 317.924 19.0707C317.898 19.2897 317.824 19.5003 317.706 19.687C317.589 19.8737 317.431 20.0318 317.245 20.1499L315.117 21.5531C314.82 21.7277 314.475 21.8006 314.134 21.7608C313.792 21.7209 313.473 21.5705 313.225 21.3324C311.924 19.9869 310.359 18.9253 308.628 18.2144C306.897 17.5035 305.037 17.1586 303.166 17.2015C294.069 17.2015 288.977 24.6277 288.977 32.2115C288.977 39.7953 294.053 47.2372 303.166 47.2372C311.38 47.2372 315.779 42.0972 316.678 35.7274H305.184C304.779 35.7279 304.39 35.5727 304.096 35.2939C303.803 35.015 303.628 34.6339 303.608 34.2296V32.1011C303.639 31.7052 303.819 31.3358 304.112 31.0669C304.404 30.798 304.787 30.6493 305.184 30.6505Z" fill="#9A999F"/>
<path d="M356.534 12.6134C356.952 12.6134 357.353 12.7795 357.649 13.0752C357.945 13.3709 358.111 13.7719 358.111 14.1901V36.9099C358.111 47.0637 352.798 52.4244 343.259 52.4244C333.721 52.4244 328.408 47.0637 328.408 36.9099V14.1901C328.394 13.9794 328.425 13.7682 328.499 13.5706C328.573 13.373 328.689 13.1935 328.838 13.0443C328.988 12.895 329.167 12.7793 329.365 12.705C329.562 12.6307 329.773 12.5995 329.984 12.6134H332.617C332.828 12.5995 333.039 12.6307 333.237 12.705C333.434 12.7793 333.614 12.895 333.763 13.0443C333.912 13.1935 334.028 13.373 334.102 13.5706C334.176 13.7682 334.208 13.9794 334.194 14.1901V35.9009C334.194 44.2099 337.836 47.1741 343.417 47.1741C348.998 47.1741 352.672 44.2099 352.672 35.9009V14.1901C352.672 13.7719 352.838 13.3709 353.133 13.0752C353.429 12.7795 353.83 12.6134 354.248 12.6134H356.534Z" fill="#9A999F"/>
<path d="M386.395 46.6696C386.785 46.6653 387.162 46.8153 387.442 47.0869C387.722 47.3585 387.884 47.7298 387.893 48.1201V50.2486C387.895 50.4459 387.858 50.6416 387.783 50.8243C387.708 51.007 387.598 51.1729 387.459 51.3124C387.319 51.452 387.153 51.5622 386.971 51.6367C386.788 51.7113 386.592 51.7486 386.395 51.7465H367.35C366.959 51.7382 366.588 51.5762 366.316 51.2958C366.045 51.0153 365.895 50.639 365.899 50.2486V14.1901C365.886 13.9903 365.914 13.7899 365.981 13.6012C366.047 13.4124 366.152 13.2391 366.287 13.0918C366.423 12.9444 366.587 12.8261 366.769 12.7438C366.952 12.6616 367.149 12.6173 367.35 12.6134H385.938C386.356 12.6134 386.757 12.7795 387.053 13.0752C387.348 13.3709 387.514 13.7719 387.514 14.1901V16.2398C387.514 16.6579 387.348 17.0589 387.053 17.3546C386.757 17.6503 386.356 17.8164 385.938 17.8164H371.48V29.0423H384.692C384.896 29.0293 385.1 29.0585 385.292 29.1281C385.484 29.1977 385.66 29.3063 385.808 29.4469C385.956 29.5875 386.073 29.7572 386.152 29.9454C386.232 30.1335 386.271 30.336 386.269 30.5402V32.6056C386.269 33.0238 386.103 33.4248 385.807 33.7205C385.511 34.0162 385.11 34.1823 384.692 34.1823H371.512V46.7957L386.395 46.6696Z" fill="#9A999F"/>
<path d="M420.954 51.7464H417.801C417.347 51.7589 416.9 51.6387 416.513 51.4007C416.127 51.1626 415.818 50.8171 415.625 50.4063L408.2 36.6261C407.695 36.6261 407.191 36.6261 406.623 36.6261H400.159V50.2013C400.163 50.5917 400.013 50.968 399.742 51.2484C399.47 51.5289 399.099 51.6909 398.708 51.6991H396.075C395.872 51.7122 395.667 51.683 395.475 51.6134C395.284 51.5438 395.108 51.4352 394.96 51.2946C394.812 51.154 394.695 50.9843 394.615 50.7961C394.536 50.608 394.496 50.4055 394.499 50.2013V14.1901C394.485 13.9794 394.516 13.7682 394.59 13.5706C394.665 13.373 394.78 13.1935 394.93 13.0443C395.079 12.895 395.258 12.7793 395.456 12.705C395.654 12.6307 395.865 12.5995 396.075 12.6134H406.765C415.704 12.6134 420.781 17.8637 420.781 24.6119C420.835 26.8934 420.19 29.137 418.934 31.042C417.677 32.9469 415.868 34.4223 413.749 35.2702L422.011 49.8544C422.136 50.0406 422.208 50.2579 422.217 50.4823C422.227 50.7066 422.174 50.9292 422.064 51.1253C421.955 51.3213 421.793 51.4832 421.597 51.5929C421.401 51.7025 421.179 51.7557 420.954 51.7464V51.7464ZM406.765 31.5335C412.125 31.5335 415.089 28.8058 415.089 24.6119C415.089 20.4179 412.125 17.6903 406.765 17.6903H400.301V31.5335H406.765Z" fill="#9A999F"/>
<path d="M429.531 12.6134H432.164C432.368 12.6108 432.571 12.6504 432.759 12.7298C432.947 12.8091 433.117 12.9265 433.257 13.0745C433.398 13.2226 433.506 13.3981 433.576 13.59C433.646 13.782 433.675 13.9863 433.662 14.19V50.2486C433.664 50.4459 433.627 50.6416 433.552 50.8243C433.478 51.0069 433.367 51.1729 433.228 51.3124C433.088 51.4519 432.922 51.5622 432.74 51.6367C432.557 51.7112 432.361 51.7485 432.164 51.7464H429.531C429.334 51.7485 429.138 51.7112 428.955 51.6367C428.773 51.5622 428.607 51.4519 428.467 51.3124C428.328 51.1729 428.218 51.0069 428.143 50.8243C428.069 50.6416 428.031 50.4459 428.033 50.2486V14.19C428.02 13.9863 428.049 13.782 428.119 13.59C428.189 13.3981 428.297 13.2226 428.438 13.0745C428.578 12.9265 428.748 12.8091 428.936 12.7298C429.124 12.6504 429.327 12.6108 429.531 12.6134V12.6134ZM436.295 -3.15334e-05C436.481 -0.00603291 436.664 0.040236 436.825 0.133512C436.986 0.226788 437.117 0.363327 437.204 0.527597C437.291 0.691867 437.331 0.877275 437.318 1.06273C437.305 1.24818 437.24 1.42624 437.13 1.57664L433.22 7.15807C433.1 7.37906 432.923 7.56328 432.706 7.69103C432.489 7.81878 432.242 7.88525 431.991 7.88334H430.209C430.085 7.87788 429.963 7.84239 429.855 7.77989C429.748 7.71739 429.657 7.62974 429.59 7.52442C429.523 7.4191 429.483 7.29923 429.473 7.17503C429.463 7.05084 429.483 6.92601 429.531 6.8112L432.164 1.11941C432.331 0.788113 432.585 0.508701 432.899 0.311394C433.213 0.114087 433.575 0.00639569 433.946 -3.15334e-05H436.295Z" fill="#9A999F"/>
<path d="M467.496 50.4535L464.642 42.3652H447.899L445.045 50.4535C444.919 50.8406 444.675 51.1782 444.347 51.4188C444.019 51.6593 443.623 51.7905 443.216 51.7937H439.968C439.809 51.7935 439.653 51.7539 439.513 51.6784C439.373 51.6029 439.254 51.4939 439.166 51.3611C439.079 51.2283 439.026 51.0759 439.012 50.9175C438.997 50.7591 439.023 50.5997 439.085 50.4535L452.644 14.0008C452.762 13.6024 453.006 13.2526 453.338 13.0028C453.67 12.753 454.073 12.6165 454.489 12.6134H458.068C458.468 12.6074 458.86 12.7276 459.188 12.9568C459.516 13.186 459.764 13.5126 459.897 13.8905L473.518 50.4535C473.571 50.605 473.587 50.7669 473.564 50.9256C473.542 51.0844 473.482 51.2356 473.39 51.3666C473.297 51.4976 473.175 51.6047 473.033 51.6789C472.891 51.7532 472.733 51.7926 472.572 51.7937H469.419C468.999 51.8008 468.586 51.6751 468.241 51.4346C467.896 51.194 467.635 50.8507 467.496 50.4535V50.4535ZM462.861 37.2883L456.27 18.652L449.743 37.241L462.861 37.2883Z" fill="#9A999F"/>
<path d="M402.571 62.7201H411.715C412.264 62.718 412.807 62.8247 413.314 63.0342C413.821 63.2436 414.282 63.5515 414.669 63.9401C415.056 64.3287 415.362 64.7903 415.57 65.2981C415.777 65.8058 415.882 66.3497 415.878 66.8983V139.583C415.882 140.131 415.777 140.674 415.569 141.181C415.362 141.688 415.055 142.148 414.668 142.536C414.281 142.923 413.82 143.229 413.313 143.437C412.806 143.645 412.263 143.75 411.715 143.745H404.305C403.758 143.747 403.216 143.641 402.71 143.433C402.204 143.224 401.744 142.918 401.358 142.531C400.971 142.144 400.664 141.684 400.456 141.178C400.247 140.672 400.141 140.13 400.143 139.583V89.8704L376.809 127.884C376.507 128.306 376.11 128.651 375.65 128.892C375.19 129.133 374.68 129.263 374.161 129.271H372.426C371.902 129.28 371.383 129.158 370.918 128.915C370.453 128.673 370.056 128.319 369.762 127.884L346.381 90.0438V139.583C346.395 140.124 346.302 140.663 346.105 141.168C345.908 141.672 345.611 142.132 345.234 142.52C344.856 142.908 344.404 143.216 343.905 143.427C343.406 143.637 342.87 143.746 342.329 143.745H334.871C333.783 143.729 332.745 143.281 331.986 142.501C331.226 141.721 330.807 140.672 330.82 139.583V66.8983C330.807 65.808 331.226 64.757 331.985 63.9743C332.744 63.1917 333.781 62.7408 334.871 62.7201H344.126C345.165 62.7375 346.184 63.0114 347.092 63.5176C347.999 64.0237 348.768 64.7463 349.329 65.6212L373.293 104.392L397.305 65.6212C397.846 64.7131 398.619 63.9656 399.544 63.4557C400.47 62.9458 401.515 62.6919 402.571 62.7201V62.7201Z" fill="#9A999F"/>
<path d="M472.352 129.161C472.899 129.159 473.441 129.265 473.947 129.474C474.453 129.682 474.913 129.989 475.299 130.376C475.686 130.763 475.993 131.222 476.201 131.728C476.41 132.234 476.516 132.776 476.514 133.323V139.63C476.518 140.178 476.413 140.721 476.206 141.228C475.998 141.735 475.692 142.195 475.304 142.583C474.917 142.97 474.456 143.277 473.95 143.484C473.443 143.692 472.899 143.797 472.352 143.793H432.763C432.216 143.795 431.674 143.688 431.168 143.48C430.662 143.272 430.202 142.965 429.815 142.578C429.428 142.191 429.122 141.731 428.913 141.226C428.705 140.72 428.599 140.177 428.601 139.63V66.8982C428.599 66.3503 428.705 65.8073 428.913 65.3005C429.121 64.7937 429.428 64.3329 429.814 63.9447C430.201 63.5566 430.661 63.2485 431.167 63.0384C431.673 62.8282 432.215 62.72 432.763 62.72H471.311C472.401 62.7408 473.439 63.1916 474.198 63.9743C474.957 64.757 475.376 65.808 475.363 66.8982V73.2049C475.347 74.2745 474.915 75.2957 474.158 76.0522C473.402 76.8086 472.381 77.2407 471.311 77.257H444.351V95.4833H468.647C469.735 95.4999 470.773 95.9473 471.532 96.7275C472.292 97.5077 472.711 98.557 472.699 99.6457V105.952C472.686 107.023 472.255 108.047 471.498 108.804C470.741 109.561 469.718 109.992 468.647 110.004H444.351V129.161H472.352Z" fill="#9A999F"/>
<path d="M555.108 103.241C555.108 127.08 539.011 143.745 511.925 143.745H490.861C489.774 143.725 488.739 143.276 487.98 142.497C487.221 141.717 486.801 140.67 486.809 139.583V66.8982C486.801 65.8092 487.221 64.7605 487.979 63.9788C488.737 63.197 489.772 62.7448 490.861 62.72H511.925C539.011 62.72 555.108 79.4012 555.108 103.241ZM539.342 103.241C539.358 85.1403 526.745 77.257 511.925 77.257H502.56V129.161H511.925C526.745 129.161 539.358 121.293 539.358 103.241H539.342Z" fill="#9A999F"/>
<path d="M568.982 62.7201H576.502C577.051 62.718 577.594 62.8247 578.101 63.0341C578.608 63.2436 579.068 63.5515 579.456 63.9401C579.843 64.3287 580.149 64.7903 580.356 65.298C580.564 65.8058 580.669 66.3497 580.664 66.8983V139.583C580.669 140.131 580.564 140.674 580.356 141.181C580.148 141.688 579.842 142.148 579.455 142.536C579.067 142.923 578.607 143.229 578.1 143.437C577.593 143.645 577.05 143.75 576.502 143.745H568.982C567.893 143.729 566.856 143.281 566.096 142.501C565.337 141.721 564.917 140.672 564.93 139.583V66.8983C564.917 65.808 565.336 64.757 566.095 63.9743C566.854 63.1916 567.892 62.7408 568.982 62.7201V62.7201Z" fill="#9A999F"/>
<path d="M648.49 123.958C649.154 123.303 650.024 122.898 650.952 122.812C651.88 122.726 652.81 122.964 653.583 123.485L659.716 127.537C660.215 127.879 660.632 128.326 660.939 128.848C661.245 129.369 661.433 129.951 661.488 130.554C661.544 131.156 661.466 131.763 661.261 132.331C661.055 132.9 660.727 133.416 660.299 133.844C656.487 137.512 651.989 140.392 647.063 142.318C642.136 144.244 636.878 145.179 631.589 145.07C607.514 145.07 590.392 126.906 590.392 103.178C590.392 79.4486 607.514 61.1592 631.589 61.1592C636.887 61.0726 642.15 62.0321 647.077 63.9828C652.003 65.9335 656.496 68.837 660.299 72.527C660.727 72.9544 661.055 73.4708 661.261 74.0395C661.466 74.6082 661.544 75.2152 661.488 75.8173C661.433 76.4195 661.245 77.0019 660.939 77.5233C660.632 78.0446 660.215 78.492 659.716 78.8337L653.583 82.8857C652.802 83.3816 651.88 83.6057 650.959 83.523C650.038 83.4403 649.17 83.0555 648.49 82.4285C643.873 78.2379 637.823 75.9803 631.589 76.1218C614.814 76.1218 606.127 89.6654 606.127 103.099C606.127 116.532 614.814 130.06 631.589 130.06C637.794 130.251 643.838 128.069 648.49 123.958V123.958Z" fill="#9A999F"/>
<path d="M726.485 140.324L722.212 127.711H688.867L684.595 140.324C684.25 141.341 683.594 142.223 682.719 142.846C681.845 143.468 680.796 143.8 679.723 143.793H671.162C670.659 143.796 670.163 143.68 669.714 143.453C669.266 143.226 668.878 142.895 668.583 142.488C668.289 142.08 668.096 141.609 668.02 141.111C667.945 140.614 667.99 140.107 668.151 139.63L694.653 66.0784C695.026 65.0887 695.693 64.2366 696.563 63.6364C697.434 63.0362 698.468 62.7164 699.525 62.7201H711.555C712.609 62.7316 713.635 63.0574 714.503 63.6556C715.371 64.2539 716.041 65.0974 716.426 66.0784L742.803 139.583C742.961 140.049 743.007 140.546 742.939 141.033C742.87 141.521 742.688 141.985 742.408 142.39C742.127 142.795 741.756 143.128 741.324 143.363C740.891 143.599 740.41 143.729 739.918 143.745H731.357C730.289 143.756 729.245 143.431 728.371 142.818C727.497 142.204 726.838 141.332 726.485 140.324V140.324ZM717.467 113.694L705.548 78.6287L693.613 113.694H717.467Z" fill="#9A999F"/>
<path d="M793.964 129.161C794.504 129.163 795.038 129.273 795.536 129.484C796.033 129.696 796.482 130.004 796.858 130.392C797.235 130.78 797.529 131.239 797.725 131.743C797.921 132.246 798.015 132.784 798 133.324V139.63C798.017 140.171 797.925 140.709 797.73 141.214C797.534 141.718 797.24 142.178 796.863 142.566C796.487 142.954 796.036 143.263 795.538 143.474C795.04 143.684 794.505 143.793 793.964 143.793H755.195C754.108 143.772 753.073 143.323 752.314 142.544C751.555 141.765 751.135 140.718 751.143 139.63V66.8983C751.135 65.8092 751.555 64.7606 752.313 63.9788C753.071 63.197 754.106 62.7449 755.195 62.7201H762.715C763.265 62.718 763.809 62.8246 764.317 63.0339C764.825 63.2431 765.286 63.5508 765.674 63.9392C766.063 64.3276 766.371 64.789 766.58 65.2969C766.789 65.8047 766.896 66.349 766.894 66.8983V129.161H793.964Z" fill="#9A999F"/>
</g>
<defs>
<linearGradient id="paint0_linear" x1="76.9543" y1="116.753" x2="134.311" y2="116.753" gradientUnits="userSpaceOnUse">
<stop offset="0.12" stop-color="#D8D9DC"/>
<stop offset="0.3" stop-color="#CCCDD0"/>
<stop offset="0.63" stop-color="#ACADB0"/>
<stop offset="1" stop-color="#808284"/>
</linearGradient>
<clipPath id="clip0">
<rect width="798" height="146" fill="white"/>
</clipPath>
</defs>
</svg>
