<svg width="183" height="63" viewBox="0 0 183 63" fill="none" xmlns="http://www.w3.org/2000/svg">
<path d="M8.78773 20.4816H14.085L16.7041 31.4664L24.0264 20.4816H29.3237L24.8317 41.5034H19.9181L22.6262 28.9199L16.5851 38.0692H13.966L11.8827 28.9199L9.17461 41.5034H4.29333L8.78773 20.4816Z" fill="#009FDA"/>
<path d="M37.5658 41.681C36.3156 41.681 35.2045 41.4292 34.2324 40.9257C33.2764 40.435 32.4352 39.749 31.7639 38.9127C31.0803 38.0569 30.5608 37.0833 30.2314 36.0404C29.884 34.9639 29.7083 33.8399 29.7105 32.7092C29.7141 31.717 29.8595 30.7302 30.1423 29.7786C30.7378 27.7486 31.8145 25.8904 33.2818 24.3603C34.0371 23.5695 34.8866 22.8735 35.8115 22.2877C36.7573 21.6893 37.7777 21.2164 38.8466 20.881C39.9636 20.532 41.1282 20.3573 42.299 20.3632C44.2034 20.3632 45.761 20.7874 46.9718 21.6359C48.1826 22.4843 48.9859 23.5899 49.3817 24.9526L45.0666 27.5579C44.967 27.0055 44.7936 26.5466 44.5462 26.1813C44.308 25.8262 43.9989 25.5237 43.6381 25.2928C43.2833 25.0667 42.8903 24.9063 42.4782 24.8193C42.0773 24.7321 41.6682 24.6873 41.2577 24.6856C40.2258 24.6856 39.3032 24.9272 38.4901 25.4103C37.6823 25.8887 36.9789 26.523 36.4214 27.276C35.8566 28.0348 35.4192 28.8797 35.1264 29.7778C34.8296 30.6859 34.6812 31.5642 34.6812 32.4129C34.6773 33.0523 34.7627 33.6892 34.935 34.3052C35.0884 34.8679 35.3402 35.3994 35.6788 35.8754C36.0001 36.3264 36.4218 36.6974 36.911 36.9596C37.4064 37.2256 37.9717 37.3587 38.607 37.359C39.0437 37.3574 39.4785 37.3033 39.902 37.1979C40.3669 37.0832 40.8165 36.9143 41.2415 36.6947C41.7054 36.4552 42.1353 36.1557 42.5203 35.8041C42.9449 35.4163 43.3018 34.9611 43.5765 34.457L47.0884 36.7957C46.5999 37.58 45.9865 38.28 45.2722 38.8684C44.5412 39.4784 43.7367 39.9956 42.8772 40.408C42.0217 40.8201 41.1233 41.1379 40.1983 41.3557C39.2767 41.5723 38.3992 41.6807 37.5658 41.681Z" fill="#009FDA"/>
<path d="M72.6525 20.7642H77.0567L80.2411 32.7262L88.5731 20.7642H92.9477L88.4558 41.7861H84.3778L87.3542 27.8703L80.1817 38.2331H77.9498L75.2118 27.8703L72.2357 41.7861H68.159L72.6525 20.7642Z" fill="#808285"/>
<path d="M99.1689 42.082C98.1767 42.082 97.2887 41.9192 96.5049 41.5936C95.7444 41.2869 95.0588 40.8216 94.4941 40.2292C93.9295 39.6367 93.4989 38.9308 93.2315 38.159C92.9433 37.3594 92.7995 36.486 92.8001 35.5388C92.7949 34.2807 93.0533 33.0354 93.5588 31.8823C94.0515 30.7472 94.7587 29.7169 95.6421 28.8474C96.5246 27.9791 97.5663 27.2882 98.7671 26.7748C99.9679 26.2613 101.263 26.0047 102.652 26.005C104.338 26.005 105.683 26.3751 106.685 27.1154C107.687 27.8556 108.188 28.9264 108.188 30.3278C108.188 33.6638 105.192 35.3318 99.2001 35.3318H98.099C97.7213 35.3318 97.3245 35.312 96.9088 35.2723V35.6571C96.9088 36.7039 97.1468 37.5526 97.6227 38.2033C98.0986 38.8539 98.8525 39.1796 99.8844 39.1804C100.669 39.1823 101.442 38.9885 102.132 38.6167C102.824 38.2532 103.405 37.7108 103.813 37.0466L106.97 38.0241C106.558 38.6325 106.068 39.1849 105.513 39.6671C104.937 40.1705 104.303 40.6031 103.623 40.9555C102.937 41.3111 102.213 41.5891 101.465 41.7845C100.716 41.9819 99.944 42.0819 99.1689 42.082ZM102.055 28.8764C101.504 28.8719 100.957 28.9776 100.448 29.1872C99.9604 29.3896 99.5122 29.6758 99.124 30.0327C98.7275 30.3996 98.3822 30.8177 98.0974 31.2759C97.7998 31.7492 97.5601 32.2562 97.3835 32.7861C97.7004 32.8059 98.0083 32.8155 98.3054 32.8155H99.228C100.181 32.8155 100.989 32.7663 101.654 32.6678C102.318 32.5693 102.854 32.4216 103.261 32.2249C103.667 32.0276 103.96 31.7956 104.138 31.5288C104.32 31.252 104.414 30.927 104.407 30.5963C104.407 30.0244 104.188 29.5949 103.752 29.308C103.315 29.0211 102.75 28.8773 102.055 28.8768V28.8764Z" fill="#808285"/>
<path d="M114.703 42.082C113.83 42.082 113.051 41.9192 112.366 41.5936C111.694 41.2771 111.1 40.8172 110.626 40.2465C110.15 39.674 109.788 38.998 109.54 38.2186C109.287 37.4085 109.162 36.5645 109.168 35.7163C109.164 34.4546 109.402 33.2036 109.867 32.0301C110.333 30.8566 110.958 29.8252 111.742 28.936C112.507 28.0619 113.431 27.3389 114.465 26.8046C115.465 26.2791 116.579 26.0047 117.71 26.005C118.782 26.005 119.695 26.2813 120.448 26.834C121.188 27.3669 121.731 28.1261 121.996 28.9956L123.899 20.1708H127.887L124.256 37.2249C124.203 37.3981 124.173 37.5772 124.167 37.758C124.167 38.1721 124.405 38.3891 124.881 38.409L124.167 41.7845C123.809 41.8437 123.497 41.8924 123.229 41.9326C122.998 41.9689 122.764 41.9887 122.53 41.9918C121.835 41.9918 121.284 41.8536 120.878 41.5771C120.472 41.3007 120.268 40.8763 120.268 40.3041C120.269 40.1305 120.284 39.9573 120.312 39.7859C120.342 39.598 120.387 39.3661 120.447 39.0902C119.691 40.0769 118.804 40.822 117.783 41.3255C116.763 41.829 115.736 42.0812 114.703 42.082ZM116.489 38.7065C116.859 38.701 117.225 38.6362 117.575 38.5145C117.97 38.3823 118.345 38.1981 118.691 37.9669C119.055 37.7242 119.393 37.4464 119.702 37.1376C120.014 36.8283 120.284 36.4799 120.506 36.1012L121.28 32.4C121.16 31.532 120.813 30.8116 120.238 30.2388C119.664 29.6661 118.999 29.3799 118.244 29.3805C117.609 29.3805 116.994 29.5433 116.399 29.8688C115.798 30.1989 115.268 30.6413 114.837 31.1717C114.384 31.7237 114.023 32.3433 113.765 33.0076C113.5 33.672 113.364 34.3801 113.364 35.0947C113.364 36.1214 113.641 36.9803 114.196 37.6714C114.752 38.3626 115.516 38.7076 116.489 38.7065Z" fill="#808285"/>
<path d="M130.476 26.2715H134.464L131.161 41.7861H127.173L130.476 26.2715ZM131.785 20.1708H135.773L134.94 24.1087H130.952L131.785 20.1708Z" fill="#808285"/>
<path d="M141.606 42.082C140.574 42.082 139.662 41.9093 138.868 41.5639C138.075 41.2184 137.41 40.7497 136.874 40.1576C136.334 39.5571 135.923 38.8522 135.669 38.0869C135.398 37.2755 135.262 36.4253 135.267 35.5702C135.267 34.3445 135.515 33.1312 135.996 32.0027C136.471 30.8637 137.157 29.824 138.019 28.938C138.883 28.0499 139.914 27.3394 141.113 26.8066C142.313 26.2738 143.617 26.0073 145.027 26.007C146.673 26.007 147.987 26.3722 148.97 27.1025C149.953 27.8329 150.603 28.7901 150.92 29.9743L146.813 31.1588C146.614 30.5866 146.297 30.1475 145.861 29.8415C145.425 29.5355 144.889 29.3825 144.254 29.3825C143.628 29.3849 143.012 29.5318 142.453 29.8117C141.861 30.1032 141.335 30.5111 140.905 31.0107C140.459 31.5244 140.097 32.1314 139.819 32.8317C139.537 33.5537 139.396 34.3223 139.403 35.0967C139.403 36.1629 139.666 37.0314 140.192 37.7024C140.717 38.3735 141.417 38.709 142.289 38.709C142.924 38.709 143.554 38.5314 144.179 38.1763C144.804 37.8212 145.285 37.3869 145.622 36.8735L149.253 38.0579C148.48 39.2422 147.428 40.2094 146.099 40.9595C144.769 41.7097 143.272 42.0839 141.606 42.082Z" fill="#808285"/>
<path d="M156.783 42.082C155.91 42.082 155.131 41.9192 154.447 41.5936C153.775 41.2771 153.181 40.8172 152.707 40.2465C152.231 39.674 151.869 38.998 151.621 38.2186C151.368 37.4085 151.243 36.5645 151.249 35.7163C151.244 34.4547 151.481 33.2037 151.946 32.03C152.412 30.8566 153.037 29.8252 153.821 28.936C154.586 28.0619 155.51 27.3389 156.544 26.8046C157.544 26.2793 158.657 26.0048 159.788 26.005C160.859 26.005 161.772 26.2813 162.526 26.8339C163.265 27.3669 163.809 28.1261 164.073 28.9956L164.668 26.3311H168.66L166.338 37.2265C166.285 37.3997 166.255 37.5789 166.249 37.7596C166.249 38.1737 166.487 38.3907 166.963 38.4106L166.249 41.7861C165.891 41.8453 165.579 41.894 165.311 41.9342C165.08 41.97 164.847 41.9894 164.613 41.9922C163.918 41.9922 163.367 41.8446 162.961 41.5493C162.554 41.2541 162.351 40.81 162.351 40.2171C162.351 39.9804 162.411 39.6054 162.53 39.0922C161.774 40.0789 160.886 40.824 159.866 41.3275C158.846 41.831 157.819 42.0825 156.783 42.082ZM158.57 38.7065C158.94 38.701 159.306 38.6361 159.656 38.5145C160.05 38.3822 160.426 38.198 160.772 37.9669C161.135 37.7242 161.474 37.4464 161.783 37.1375C162.095 36.8282 162.365 36.4799 162.587 36.1012L163.36 32.4C163.241 31.532 162.894 30.8116 162.319 30.2388C161.744 29.666 161.079 29.3799 160.325 29.3805C159.69 29.3805 159.074 29.5432 158.479 29.8688C157.879 30.1988 157.349 30.6412 156.917 31.1717C156.465 31.7237 156.104 32.3433 155.846 33.0076C155.581 33.6719 155.445 34.38 155.444 35.0947C155.444 36.1214 155.722 36.9803 156.277 37.6714C156.832 38.3626 157.597 38.7076 158.57 38.7065Z" fill="#808285"/>
<path d="M172.973 42.0228C171.961 42.0228 171.187 41.7909 170.651 41.3271C170.115 40.8633 169.847 40.1971 169.848 39.3286C169.848 39.1506 169.858 38.9728 169.878 38.7959C169.897 38.618 169.927 38.4204 169.967 38.2033L173.836 20.1708H177.794L174.252 36.8118C174.232 36.9097 174.218 37.0084 174.208 37.1078C174.198 37.2062 174.193 37.3051 174.193 37.4041C174.193 38.2136 174.599 38.6182 175.413 38.618C175.67 38.6122 175.925 38.5724 176.172 38.4996C176.452 38.4233 176.726 38.3242 176.99 38.2033L176.871 41.2228C176.247 41.4946 175.593 41.6932 174.922 41.8147C174.197 41.9534 173.548 42.0228 172.973 42.0228Z" fill="#808285"/>
<path d="M50.7273 63C50.4208 63.0001 50.1229 62.8997 49.8794 62.7146C49.6359 62.5294 49.4605 62.2696 49.3801 61.9754L46.1103 50.0215H2.39696C2.20962 50.0278 2.0229 49.9966 1.84794 49.9296C1.67298 49.8627 1.51336 49.7614 1.37857 49.6318C1.24378 49.5022 1.13659 49.3469 1.06339 49.1752C0.990181 49.0036 0.952454 48.819 0.952454 48.6325C0.952454 48.446 0.990181 48.2614 1.06339 48.0897C1.13659 47.918 1.24378 47.7628 1.37857 47.6331C1.51336 47.5035 1.67298 47.4022 1.84794 47.3353C2.0229 47.2683 2.20962 47.2371 2.39696 47.2435H47.1778C47.4844 47.2435 47.7825 47.3439 48.0261 47.5292C48.2697 47.7144 48.4453 47.9742 48.5258 48.2685L50.5266 55.5831L61.5833 1.11524C61.6528 0.774606 61.848 0.472228 62.1305 0.267737C62.413 0.0632455 62.7622 -0.0285157 63.1094 0.0105494C63.4565 0.0496144 63.7764 0.21667 64.0058 0.478772C64.2353 0.740873 64.3577 1.07899 64.3489 1.42646L63.1684 46.6875H180.603C180.79 46.6811 180.977 46.7123 181.152 46.7793C181.327 46.8462 181.487 46.9475 181.621 47.0771C181.756 47.2067 181.863 47.362 181.937 47.5337C182.01 47.7054 182.048 47.89 182.048 48.0765C182.048 48.263 182.01 48.4475 181.937 48.6192C181.863 48.7909 181.756 48.9462 181.621 49.0758C181.487 49.2054 181.327 49.3067 181.152 49.3736C180.977 49.4406 180.79 49.4718 180.603 49.4655H61.7343C61.5478 49.4655 61.3632 49.4284 61.1913 49.3563C61.0195 49.2843 60.8639 49.1787 60.7338 49.0458C60.6036 48.9129 60.5016 48.7554 60.4336 48.5826C60.3657 48.4099 60.3332 48.2253 60.3381 48.0398L61.139 17.344L52.0972 61.8856C52.0349 62.1922 51.8704 62.469 51.6304 62.6712C51.3904 62.8733 51.0889 62.989 50.7747 62.9996L50.7273 63Z" fill="url(#paint0_linear)"/>
<defs>
<linearGradient id="paint0_linear" x1="22.3967" y1="31.5002" x2="193.535" y2="31.5002" gradientUnits="userSpaceOnUse">
<stop offset="0.02" stop-color="#808285"/>
<stop offset="1" stop-color="#F1F2F2"/>
</linearGradient>
</defs>
</svg>
